<svg version="1.1" viewBox="0.0 0.0 960.0 960.0" fill="none" stroke="none" stroke-linecap="square" stroke-miterlimit="10" xmlns:xlink="http://www.w3.org/1999/xlink" xmlns="http://www.w3.org/2000/svg"><clipPath id="p.0"><path d="m0 0l960.0 0l0 960.0l-960.0 0l0 -960.0z" clip-rule="nonzero"/></clipPath><g clip-path="url(#p.0)"><path fill="#000000" fill-opacity="0.0" d="m0 0l960.0 0l0 960.0l-960.0 0z" fill-rule="evenodd"/><path fill="#000000" d="m0 160.0032l0 0c0 -88.36733 71.63587 -160.0032 160.0032 -160.0032l639.99365 0l0 0c42.435486 0 83.13287 16.857431 113.13934 46.863853c30.006409 30.006416 46.86383 70.70386 46.86383 113.13935l0 639.99365c0 88.36731 -71.635864 160.00317 -160.00317 160.00317l-639.99365 0c-88.36733 0 -160.0032 -71.635864 -160.0032 -160.00317z" fill-rule="evenodd"/><path fill="#000000" fill-opacity="0.0" d="m0 0l960.0 0l0 960.0l-960.0 0z" fill-rule="evenodd"/><path fill="#ffffff" d="m121.67041 672.0l0 -388.01562l114.578125 0l92.453125 152.34375q11.984375 19.78125 22.390625 39.578125q10.421875 19.796875 20.1875 43.625q9.765625 23.828125 19.921875 55.59375l-9.125 0q-1.296875 -21.09375 -3.25 -48.828125q-1.953125 -27.734375 -3.515625 -54.6875q-1.5625 -26.953125 -1.5625 -45.4375l0 -142.1875l108.328125 0l0 388.01562l-114.578125 0l-86.1875 -141.67188q-14.59375 -24.21875 -25.65625 -45.171875q-11.0625 -20.96875 -21.359375 -44.40625q-10.28125 -23.4375 -23.5625 -54.15625l10.9375 0q2.078125 27.328125 4.03125 54.421875q1.953125 27.078125 3.125 50.265625q1.171875 23.171875 1.171875 39.046875l0 141.67188l-108.328125 0zm410.41266 0l0 -388.01562l168.23438 0q44.265625 0 74.46875 11.984375q30.203125 11.96875 45.5625 33.71875q15.375 21.75 15.375 51.171875q0 21.359375 -9.375 39.0625q-9.375 17.703125 -26.171875 29.5625q-16.796875 11.84375 -39.453125 16.265625l0 4.171875q25.0 0.78125 45.4375 12.375q20.453125 11.578125 32.5625 32.03125q12.109375 20.4375 12.109375 47.78125q0 31.765625 -16.40625 56.640625q-16.40625 24.859375 -46.875 39.0625q-30.46875 14.1875 -72.65625 14.1875l-182.8125 0zm105.203125 -83.859375l49.484375 0q26.296875 0 39.703125 -10.15625q13.421875 -10.15625 13.421875 -29.421875q0 -13.796875 -6.25 -23.296875q-6.25 -9.515625 -17.84375 -14.453125q-11.578125 -4.953125 -27.46875 -4.953125l-51.046875 0l0 82.28125zm0 -147.39062l43.234375 0q13.796875 0 24.34375 -4.296875q10.546875 -4.296875 16.53125 -12.5q6.0 -8.203125 6.0 -20.171875q0 -17.71875 -12.890625 -27.34375q-12.890625 -9.640625 -32.421875 -9.640625l-44.796875 0l0 73.953125z" fill-rule="nonzero"/></g></svg>